<svg width="237" height="21" viewBox="0 0 237 21" fill="none" xmlns="http://www.w3.org/2000/svg">
<path d="M146.196 12.1739C146.098 12.5221 145.902 12.8159 145.586 13.0552C145.282 13.2946 144.955 13.4143 144.607 13.4143H132.258C131.91 13.4143 131.66 13.2946 131.486 13.0552C131.312 12.8159 131.279 12.5221 131.377 12.1739L134.13 2.25122C134.227 1.90305 134.423 1.60929 134.728 1.36993C135.033 1.13056 135.348 1.01088 135.696 1.01088H148.056C148.415 1.01088 148.676 1.13056 148.85 1.36993C149.024 1.60929 149.057 1.90305 148.948 2.2621L148.622 3.43716H136.262L134.173 10.988H146.522L146.196 12.1739ZM153.496 1.02176H151.026L147.599 13.4034H150.069L153.496 1.02176ZM116.188 1H113.718L111.466 9.1166L101.554 1.02176L98.1162 13.4469H100.586L102.816 5.38471L112.728 13.4687L116.188 1ZM132.28 1.35905C132.106 1.11968 131.845 1 131.486 1H117.929L117.254 3.42628H129.593L128.874 6.01576H116.547L114.491 13.3925H116.961L118.332 8.44203H129.429C129.777 8.44203 130.104 8.32235 130.409 8.08299C130.713 7.84362 130.92 7.54986 131.018 7.20169L132.389 2.24034C132.487 1.89217 132.443 1.59841 132.28 1.35905Z" fill="#21317D"/>
<path d="M158.165 1.0083L161.287 7.22088L154.727 13.4226L158.165 1.0083Z" fill="#00895D"/>
<path d="M155.973 1.0083L159.085 7.22088L152.524 13.4226L155.973 1.0083Z" fill="#F36700"/>
<path d="M153.864 15.4309C153.81 15.3656 153.766 15.3003 153.712 15.2351C153.549 15.0501 153.396 14.9195 153.244 14.8216C153.124 14.7454 153.016 14.691 152.907 14.6584C152.787 14.6149 152.667 14.604 152.548 14.604C152.319 14.604 152.123 14.6475 151.96 14.7454C151.797 14.8434 151.688 14.9848 151.634 15.1698C151.612 15.2459 151.612 15.3112 151.634 15.3765V15.3874C151.634 15.3983 151.645 15.42 151.645 15.4418H151.231L151.177 15.6376H151.579L151.101 17.422H151.394L151.873 15.6376H153.799L153.679 16.0946H152.504C152.461 16.0946 152.428 16.1055 152.374 16.1163C152.319 16.1381 152.287 16.1707 152.276 16.236C152.265 16.2687 152.276 16.3231 152.406 16.4863L152.428 16.508C152.537 16.6386 152.613 16.7039 152.667 16.7039C152.744 16.7039 152.787 16.6712 152.798 16.6386L152.885 16.3013H153.636L153.331 17.4328H153.614L154.093 15.6485H155.126L154.974 16.2143H154.713C154.691 16.2143 154.68 16.2251 154.669 16.2251C154.604 16.236 154.571 16.2687 154.561 16.3013C154.539 16.3775 154.582 16.4754 154.702 16.5951C154.822 16.7148 154.92 16.7692 154.996 16.7692C155.061 16.7692 155.115 16.7365 155.137 16.6821C155.148 16.6604 155.159 16.6386 155.159 16.606L155.42 15.6485H156.106L155.627 17.4328H155.921L156.399 15.6485H157.259L157.085 16.2795H156.889C156.867 16.2795 156.834 16.2795 156.802 16.2904C156.758 16.3013 156.726 16.3339 156.704 16.3883C156.693 16.4428 156.737 16.5298 156.845 16.6495C156.954 16.7692 157.041 16.8344 157.106 16.8344C157.161 16.8344 157.204 16.8127 157.226 16.78C157.237 16.7692 157.237 16.7474 157.237 16.7256L157.302 16.4754H158.097L157.835 17.422H158.118L158.597 15.6376H158.978L159.032 15.4418H153.864V15.4309ZM158.336 15.6267L158.162 16.2578H157.368L157.542 15.6267H158.336ZM152.123 14.8978C152.243 14.8216 152.352 14.789 152.472 14.789C152.591 14.789 152.711 14.8216 152.831 14.8651C152.896 14.8978 152.961 14.9304 153.016 14.9631C153.157 15.0501 153.288 15.1589 153.396 15.3003L153.429 15.333C153.451 15.3656 153.473 15.3874 153.494 15.42H151.906C151.895 15.3983 151.895 15.3874 151.895 15.3765V15.3656C151.884 15.3003 151.884 15.2351 151.906 15.1807C151.938 15.0719 152.015 14.9739 152.123 14.8978ZM140.819 15.4309H149.773L149.719 15.6267H149.338L148.859 17.4111H148.576L148.881 16.2795H148.13L148.043 16.6168C148.022 16.6604 147.978 16.6821 147.913 16.6821C147.858 16.6821 147.793 16.6277 147.673 16.4863C147.532 16.3122 147.521 16.2469 147.532 16.2251C147.543 16.1707 147.586 16.1272 147.63 16.1055C147.673 16.0946 147.717 16.0837 147.76 16.0837H148.935L149.055 15.6267H147.129L146.651 17.4111H146.368L146.847 15.6267H146.161L145.682 17.4111H145.399L145.726 16.1925H144.899C144.79 16.1925 144.703 16.2143 144.649 16.2469C144.594 16.2795 144.562 16.3231 144.54 16.3883C144.496 16.5624 144.551 16.7583 144.692 16.9541C144.747 17.0303 144.834 17.1173 144.942 17.2152L144.964 17.237L144.736 17.3893L144.725 17.3784C144.605 17.2696 144.507 17.1717 144.442 17.0847C144.257 16.8453 144.203 16.6168 144.257 16.3992C144.29 16.2687 144.355 16.1816 144.464 16.1163C144.562 16.0511 144.681 16.0184 144.823 16.0184H145.78L145.889 15.6376H143.931L143.452 17.422H143.158L143.637 15.6376H142.951L142.69 16.5951C142.69 16.6277 142.679 16.6604 142.669 16.6821C142.636 16.7365 142.592 16.7692 142.527 16.7692C142.44 16.7692 142.353 16.7148 142.233 16.5951C142.125 16.4754 142.07 16.3775 142.092 16.3013C142.103 16.2469 142.168 16.2251 142.201 16.2251C142.212 16.2251 142.212 16.2251 142.222 16.2251H142.244H142.505L142.658 15.6594H141.613L141.145 17.4002C141.221 17.422 141.287 17.4546 141.341 17.509C141.428 17.596 141.45 17.7049 141.417 17.8245C141.374 17.966 141.287 18.0857 141.134 18.1727C140.993 18.2597 140.808 18.3033 140.601 18.3033C140.351 18.3033 140.123 18.238 139.916 18.1074C139.84 18.0639 139.774 17.9986 139.687 17.9007L139.666 17.8789L139.894 17.694L139.905 17.7157C139.97 17.8028 140.025 17.8572 140.079 17.9007C140.231 18.0313 140.405 18.0965 140.601 18.0965C140.721 18.0965 140.83 18.0639 140.928 18.0204C141.026 17.966 141.091 17.9007 141.113 17.8028C141.134 17.7484 141.124 17.694 141.08 17.6613C141.047 17.6178 140.993 17.6069 140.917 17.6069C140.852 17.6069 140.775 17.6287 140.699 17.6831C140.677 17.694 140.656 17.7157 140.601 17.7593L140.59 17.7701L140.405 17.596L140.427 17.5852C140.492 17.5416 140.547 17.509 140.59 17.4872C140.677 17.4437 140.764 17.422 140.852 17.4002L141.08 16.5624H140.384L140.318 16.8236C140.318 16.8453 140.308 16.878 140.297 16.8997C140.275 16.9432 140.22 16.9432 140.177 16.9432C140.144 16.9432 140.079 16.9215 139.905 16.7365C139.731 16.5516 139.72 16.4863 139.731 16.4536C139.742 16.421 139.764 16.3992 139.807 16.3666C139.851 16.3448 139.872 16.3339 139.894 16.3339H140.166L140.329 15.7464C140.34 15.7029 140.34 15.6703 140.318 15.6376C140.297 15.6159 140.242 15.5941 140.166 15.5941C140.101 15.5941 140.057 15.605 140.014 15.6376C139.97 15.6703 139.938 15.7138 139.927 15.7682C139.916 15.8117 139.916 15.8661 139.927 15.9096C139.927 15.9096 139.938 15.9205 139.938 15.9314L139.959 15.964H139.655L139.644 15.9531C139.633 15.9314 139.633 15.9096 139.622 15.8987V15.8879C139.611 15.8226 139.611 15.7791 139.622 15.7464C139.655 15.6267 139.731 15.5397 139.829 15.4744C139.938 15.42 140.057 15.3874 140.188 15.3874C140.318 15.3874 140.427 15.42 140.492 15.4853C140.569 15.5506 140.59 15.6376 140.569 15.7464L140.416 16.3122H141.113L141.298 15.6267H140.754L140.819 15.4309ZM135.292 15.0501C135.194 14.8325 135.042 14.7019 134.835 14.6584C134.77 14.6475 134.704 14.6366 134.617 14.6366C134.443 14.6366 134.302 14.6802 134.182 14.7454C134.062 14.8216 133.975 14.9413 133.932 15.0936C133.91 15.1698 133.921 15.2568 133.943 15.3547C133.943 15.3765 133.954 15.3983 133.964 15.4309H128.579L128.524 15.6267H129.699L129.58 16.0728C129.558 16.1381 129.525 16.1925 129.46 16.236C129.395 16.2795 129.319 16.3013 129.221 16.3013C129.166 16.3013 129.112 16.2904 129.068 16.2795C129.014 16.2578 129.003 16.236 129.003 16.2251L128.883 15.9423L128.622 16.0728L128.633 16.0946C128.666 16.1599 128.688 16.2143 128.698 16.2578C128.753 16.3884 128.829 16.5298 128.927 16.7039C128.992 16.8127 129.079 16.9432 129.177 17.0738C129.253 17.1826 129.34 17.2914 129.438 17.4002L129.449 17.4111L129.699 17.2479L129.678 17.2261C129.645 17.1935 129.623 17.1717 129.601 17.15C129.58 17.1282 129.558 17.1064 129.547 17.0847C129.504 17.0303 129.471 16.9868 129.438 16.9432C129.395 16.8888 129.362 16.8453 129.329 16.8018L129.134 16.4645C129.242 16.4863 129.373 16.4645 129.514 16.421C129.612 16.3884 129.699 16.3339 129.754 16.2795C129.808 16.2251 129.841 16.1599 129.863 16.0946L129.993 15.6159H130.744L130.265 17.4002H130.548L131.027 15.6159H131.68L131.484 16.3231C131.44 16.4754 131.484 16.5951 131.593 16.693C131.701 16.7909 131.854 16.8344 132.039 16.8344C132.115 16.8344 132.202 16.8236 132.289 16.7909C132.343 16.78 132.398 16.7583 132.463 16.7365C132.474 16.8236 132.517 16.9106 132.583 16.9868C132.593 17.0085 132.615 17.0303 132.637 17.0412V17.052C132.746 17.15 132.876 17.2261 133.029 17.2588L132.06 17.9225H132.485L133.214 17.3567L133.594 17.9225H133.943L133.442 17.2805C133.573 17.2696 133.682 17.237 133.779 17.1935C133.921 17.1391 134.062 17.052 134.193 16.9215L134.215 16.8997L133.997 16.78L133.986 16.7909C133.801 16.9759 133.573 17.0629 133.312 17.0629C133.116 17.0629 132.963 17.0085 132.855 16.8888C132.757 16.7909 132.724 16.6821 132.735 16.5624C132.735 16.5407 132.746 16.5189 132.746 16.4972C132.757 16.4754 132.757 16.4645 132.768 16.4428C132.8 16.3775 132.855 16.3122 132.931 16.2687C133.018 16.2034 133.127 16.1707 133.235 16.1707H134.062L134.215 15.5941H135.074L134.595 17.3784H134.878L135.357 15.5941H136.304C136.336 15.6376 136.369 15.6703 136.38 15.7029C136.423 15.8008 136.445 15.877 136.423 15.9531C136.391 16.0619 136.336 16.1381 136.238 16.1925C136.162 16.236 136.064 16.2578 135.945 16.2578C135.934 16.2578 135.912 16.2578 135.879 16.2469C135.868 16.2469 135.847 16.2469 135.836 16.236C135.825 16.236 135.803 16.2251 135.792 16.2251H135.77V16.2469C135.727 16.4319 135.76 16.5951 135.868 16.7474C135.977 16.8997 136.173 16.9759 136.445 16.9759H136.456C136.619 16.9759 136.771 16.9432 136.913 16.8888C136.946 16.878 136.989 16.8562 137.033 16.8344L136.88 17.3893H137.174L137.653 15.605H138.034L138.088 15.4091H135.357C135.368 15.2568 135.335 15.1263 135.292 15.0501ZM136.695 15.7247C136.684 15.7029 136.674 15.6703 136.652 15.6267H137.392L137.141 16.5407C137.065 16.606 137.011 16.6495 136.967 16.6712C136.815 16.7583 136.663 16.8127 136.51 16.8127H136.499C136.304 16.8127 136.173 16.7583 136.108 16.6277C136.086 16.5951 136.075 16.5407 136.064 16.4645C136.173 16.4428 136.271 16.421 136.336 16.3883C136.543 16.3013 136.674 16.1707 136.717 15.9858C136.75 15.9205 136.739 15.8226 136.695 15.7247ZM134.334 14.8978C134.4 14.8434 134.476 14.8216 134.585 14.8216C134.661 14.8216 134.726 14.8325 134.78 14.8542C134.9 14.8978 134.987 14.9957 135.052 15.1371C135.085 15.2024 135.107 15.3003 135.129 15.4309H134.247C134.236 15.4091 134.226 15.3874 134.215 15.3656V15.3547C134.193 15.2677 134.193 15.1915 134.215 15.1045C134.236 15.0175 134.28 14.9413 134.334 14.8978ZM132.496 16.4754C132.496 16.4754 132.496 16.4863 132.496 16.4754V16.4972C132.496 16.5189 132.485 16.5407 132.485 16.5516C132.463 16.5624 132.441 16.5733 132.409 16.5842C132.3 16.6277 132.202 16.6495 132.093 16.6495C131.973 16.6495 131.886 16.6168 131.832 16.5733C131.777 16.5189 131.756 16.4536 131.777 16.3557L131.919 15.8117L132.496 16.4754ZM133.954 15.6267L133.856 15.9967H133.235C133.094 15.9967 132.963 16.0293 132.844 16.0946C132.811 16.1055 132.789 16.1272 132.768 16.149C132.702 16.1925 132.659 16.236 132.615 16.2904L132.049 15.6376H133.954V15.6267ZM124.292 15.0501C124.194 14.8325 124.042 14.7019 123.835 14.6584C123.781 14.6475 123.704 14.6366 123.617 14.6366C123.443 14.6366 123.302 14.6802 123.182 14.7563C123.052 14.8325 122.975 14.9522 122.932 15.1045C122.91 15.1807 122.921 15.2677 122.943 15.3656C122.943 15.3874 122.954 15.4091 122.965 15.4418H117.579L117.524 15.6376H118.068L117.884 16.3231H117.187L117.34 15.7573C117.372 15.6485 117.339 15.5615 117.263 15.4962C117.187 15.4309 117.089 15.3983 116.959 15.3983C116.828 15.3983 116.708 15.4309 116.6 15.4853C116.491 15.5506 116.426 15.6376 116.393 15.7573C116.382 15.8008 116.382 15.8443 116.393 15.8987C116.393 15.9205 116.404 15.9423 116.415 15.964L116.426 15.9749H116.698L116.665 15.9423C116.654 15.9314 116.654 15.9314 116.654 15.9205C116.643 15.877 116.643 15.8226 116.654 15.7791C116.665 15.7247 116.698 15.6811 116.741 15.6485C116.785 15.6159 116.839 15.605 116.893 15.605C116.97 15.605 117.024 15.6159 117.046 15.6485C117.067 15.6703 117.067 15.7138 117.057 15.7573L116.893 16.3557H116.632C116.611 16.3557 116.578 16.3666 116.534 16.3883C116.491 16.4101 116.469 16.4319 116.458 16.4754C116.458 16.4972 116.436 16.5516 116.632 16.7583C116.806 16.9432 116.872 16.965 116.904 16.965C116.948 16.965 117.002 16.965 117.024 16.9215C117.035 16.8997 117.046 16.8671 117.046 16.8453L117.111 16.5842H117.807L117.568 17.4655H117.851L118.33 15.6811H119.015L118.536 17.4655H118.83L119.309 15.6811H120.756L120.636 16.1272C120.614 16.1925 120.582 16.2469 120.517 16.2904C120.451 16.3339 120.375 16.3557 120.277 16.3557C120.223 16.3557 120.168 16.3448 120.125 16.3339C120.07 16.3122 120.06 16.2904 120.06 16.2795L119.94 15.9967L119.679 16.1272L119.69 16.149C119.711 16.2034 119.733 16.2578 119.766 16.3231C119.82 16.4536 119.896 16.5951 119.994 16.7692C120.049 16.8671 120.125 16.9759 120.245 17.1391C120.332 17.2588 120.419 17.3676 120.506 17.4655L120.517 17.4764L120.767 17.3132L120.745 17.2914C120.691 17.237 120.647 17.1826 120.614 17.15L120.571 17.0956C120.495 17.0085 120.44 16.9324 120.397 16.8671L120.201 16.5298C120.31 16.5516 120.44 16.5298 120.582 16.4863C120.691 16.4536 120.767 16.3992 120.821 16.3448C120.876 16.2904 120.908 16.2251 120.93 16.1599L121.061 15.6811H123.084L122.975 16.0619H122.018C121.877 16.0619 121.757 16.0946 121.659 16.1599C121.561 16.2251 121.485 16.3231 121.452 16.4428C121.398 16.6604 121.452 16.8888 121.637 17.1282C121.702 17.2152 121.8 17.3132 121.92 17.422L121.931 17.4328L122.159 17.2805L122.138 17.2588C122.029 17.1608 121.942 17.0738 121.887 16.9976C121.735 16.8018 121.681 16.606 121.735 16.4319C121.757 16.3666 121.789 16.3231 121.844 16.2904C121.909 16.2578 121.985 16.236 122.094 16.236H122.932L122.605 17.4546H122.888L123.367 15.6703H124.053L123.574 17.4546H123.857L124.335 15.6703H125.282C125.326 15.7138 125.347 15.7464 125.358 15.7791C125.402 15.8661 125.423 15.9423 125.402 16.0184C125.369 16.1272 125.315 16.2034 125.228 16.2578C125.151 16.3013 125.054 16.3231 124.934 16.3231C124.923 16.3231 124.901 16.3231 124.869 16.3122C124.858 16.3122 124.847 16.3122 124.836 16.3013C124.825 16.3013 124.803 16.2904 124.792 16.2904H124.771V16.3122C124.716 16.4972 124.749 16.6604 124.869 16.8127C124.977 16.965 125.173 17.0412 125.445 17.0412H125.456C125.619 17.0412 125.772 17.0085 125.924 16.9541C125.957 16.9432 126 16.9215 126.044 16.8997L125.891 17.4546H126.174L126.653 15.6703H127.034L127.088 15.4744H124.357C124.368 15.2568 124.335 15.1263 124.292 15.0501ZM125.695 15.7247C125.685 15.7029 125.674 15.6703 125.652 15.6267H126.381L126.142 16.5407C126.065 16.606 126.011 16.6495 125.967 16.6712C125.815 16.7583 125.663 16.8127 125.511 16.8127H125.5C125.304 16.8127 125.173 16.7474 125.108 16.6277C125.086 16.5842 125.075 16.5298 125.064 16.4645C125.173 16.4428 125.271 16.421 125.336 16.3883C125.543 16.3013 125.663 16.1707 125.717 15.9858C125.739 15.9205 125.739 15.8226 125.695 15.7247ZM123.334 14.8978C123.4 14.8434 123.476 14.8216 123.585 14.8216C123.661 14.8216 123.726 14.8325 123.781 14.8542C123.9 14.8978 123.987 14.9957 124.053 15.1371C124.085 15.1915 124.107 15.2895 124.129 15.4309H123.247C123.237 15.4091 123.226 15.3765 123.215 15.3547C123.193 15.2677 123.193 15.1807 123.215 15.1045C123.226 15.0175 123.269 14.9413 123.334 14.8978Z" fill="#333333"/>
<path d="M96.0039 20.9002L96.5806 18.8112L97.5162 20.0406C97.538 20.0733 97.5706 20.1168 97.5924 20.1494C97.6142 20.193 97.6468 20.2365 97.6686 20.28L98.0603 18.8873H98.3649L97.7883 20.9763L96.8308 19.7251C96.809 19.6925 96.7873 19.6598 96.7546 19.6163C96.7329 19.5837 96.7111 19.5401 96.7002 19.4966L96.3086 20.9002H96.0039ZM99.9969 20.911L99.6052 18.8221L98.0494 20.911H98.3975L98.7783 20.3888H99.5726L99.6596 20.911H99.9969ZM99.3006 19.6598C99.3224 19.6272 99.3441 19.5945 99.3659 19.551C99.3876 19.5075 99.4094 19.4749 99.4312 19.4313C99.4312 19.4749 99.4312 19.5184 99.4312 19.5619C99.4312 19.6054 99.4312 19.6381 99.442 19.6598L99.5182 20.1168H98.9524L99.3006 19.6598ZM101.52 19.1702L101.596 18.8873H100.204L100.127 19.1702H100.661L100.182 20.9002H100.508L100.987 19.1702H101.52ZM101.683 20.9002L102.238 18.8873H101.912L101.357 20.9002H101.683ZM104.382 19.8992C104.425 19.7577 104.436 19.6272 104.414 19.4966C104.393 19.3661 104.349 19.2573 104.273 19.1485C104.197 19.0505 104.099 18.9744 103.99 18.92C103.87 18.8656 103.751 18.8438 103.598 18.8438C103.457 18.8438 103.304 18.8656 103.163 18.92C103.022 18.9744 102.88 19.0505 102.75 19.1485C102.619 19.2464 102.51 19.3661 102.423 19.4857C102.336 19.6163 102.271 19.7469 102.227 19.8883C102.184 20.0298 102.173 20.1712 102.195 20.2909C102.216 20.4214 102.26 20.5302 102.336 20.6282C102.412 20.7261 102.499 20.8022 102.619 20.8566C102.739 20.911 102.869 20.9328 103.011 20.9328C103.152 20.9328 103.294 20.9002 103.446 20.8566C103.598 20.8131 103.729 20.7261 103.859 20.6282C103.99 20.5302 104.099 20.4106 104.186 20.2909C104.273 20.1821 104.338 20.0515 104.382 19.8992ZM104.044 19.8992C104.012 19.9971 103.968 20.095 103.914 20.1821C103.849 20.2691 103.772 20.3562 103.685 20.4214C103.598 20.4976 103.5 20.552 103.402 20.5846C103.304 20.6173 103.207 20.639 103.109 20.639C103.011 20.639 102.924 20.6173 102.837 20.5846C102.76 20.552 102.695 20.4976 102.641 20.4214C102.586 20.3453 102.565 20.2691 102.554 20.1821C102.543 20.095 102.554 19.9971 102.576 19.8992C102.608 19.8013 102.652 19.7033 102.717 19.6054C102.782 19.5184 102.858 19.4313 102.945 19.3661C103.032 19.2899 103.13 19.2355 103.228 19.2029C103.326 19.1593 103.424 19.1485 103.522 19.1485C103.62 19.1485 103.707 19.1702 103.794 19.2029C103.87 19.2464 103.936 19.2899 103.979 19.3661C104.033 19.4422 104.055 19.5184 104.066 19.6054C104.077 19.7033 104.066 19.8013 104.044 19.8992ZM104.719 20.9002L105.111 19.4966C105.132 19.5401 105.143 19.5728 105.165 19.6163C105.187 19.6489 105.209 19.6925 105.241 19.7251L106.199 20.9763L106.775 18.8873H106.471L106.079 20.28C106.057 20.2256 106.025 20.1821 106.003 20.1494C105.981 20.1059 105.948 20.0733 105.927 20.0406L104.991 18.8112L104.414 20.9002H104.719ZM108.407 20.911L108.016 18.8221L106.46 20.911H106.808L107.189 20.3888H107.983L108.07 20.911H108.407ZM107.711 19.6598C107.733 19.6272 107.754 19.5945 107.776 19.551C107.798 19.5075 107.82 19.4749 107.842 19.4313C107.842 19.4749 107.842 19.5184 107.842 19.5619C107.842 19.6054 107.842 19.6381 107.852 19.6598L107.929 20.1168H107.363L107.711 19.6598ZM109.713 20.9002L109.789 20.6064H109.06L109.539 18.8873H109.212L108.658 20.9002H109.713ZM111.573 19.9971H111.639C111.78 19.9971 111.9 19.9862 111.965 19.9753C112.041 19.9645 112.107 19.9318 112.172 19.8992C112.248 19.8557 112.313 19.7904 112.379 19.7142C112.433 19.6381 112.476 19.551 112.509 19.4531C112.531 19.3552 112.542 19.2681 112.531 19.192C112.52 19.1158 112.487 19.0505 112.433 19.007C112.389 18.9744 112.335 18.9417 112.27 18.9309C112.204 18.92 112.096 18.9091 111.954 18.9091H111.454L110.899 20.9219H111.203L111.454 20.0189H111.573V19.9971ZM111.693 19.1702H111.78C111.954 19.1702 112.063 19.192 112.117 19.2355C112.172 19.279 112.183 19.3552 112.15 19.464C112.117 19.5619 112.074 19.6381 111.998 19.6707C111.922 19.7142 111.802 19.7251 111.617 19.7251H111.53L111.693 19.1702ZM113.739 20.911L113.347 18.8221L111.791 20.911H112.128L112.509 20.3888H113.303L113.39 20.911H113.739ZM113.042 19.6598C113.064 19.6272 113.086 19.5945 113.108 19.551C113.129 19.5075 113.151 19.4749 113.173 19.4313C113.173 19.4749 113.173 19.5184 113.173 19.5619C113.173 19.6054 113.173 19.6381 113.184 19.6598L113.26 20.1168H112.694L113.042 19.6598ZM114.25 20.9002L114.511 19.9753L115.512 18.8873H115.186L114.565 19.5619C114.544 19.5837 114.522 19.6163 114.5 19.6381C114.478 19.6707 114.457 19.6925 114.435 19.7251C114.424 19.6925 114.424 19.6598 114.413 19.6381C114.402 19.6054 114.402 19.5837 114.391 19.5728L114.163 18.8873H113.815L114.185 19.9753L113.924 20.9002H114.25ZM116.85 20.9002H117.155L117.253 18.8003L116.317 20.0733C116.306 20.0842 116.295 20.1059 116.274 20.1277C116.208 20.2147 116.154 20.2909 116.121 20.3453C116.11 20.28 116.11 20.2147 116.1 20.1712C116.089 20.1277 116.089 20.095 116.089 20.0733L115.849 18.8003L114.794 20.9002H115.099L115.588 19.9101C115.61 19.8557 115.632 19.8121 115.653 19.7686C115.675 19.7251 115.686 19.6816 115.697 19.6381C115.697 19.6816 115.697 19.7251 115.708 19.7686C115.708 19.8121 115.719 19.8557 115.73 19.8992L115.947 20.9981L116.774 19.9209C116.807 19.8774 116.839 19.823 116.872 19.7795C116.905 19.736 116.926 19.6925 116.948 19.6381C116.948 19.6816 116.937 19.7251 116.926 19.7795C116.916 19.8448 116.905 19.8883 116.905 19.9101L116.85 20.9002ZM118.602 20.9002L118.678 20.6064H117.884L118.069 19.9536H118.863L118.939 19.6707H118.145L118.286 19.1702H119.081L119.157 18.8982H118.036L117.481 20.911H118.602V20.9002ZM119.331 20.9002L119.723 19.4966C119.744 19.5401 119.755 19.5728 119.777 19.6163C119.799 19.6489 119.821 19.6925 119.853 19.7251L120.811 20.9763L121.387 18.8873H121.083L120.691 20.28C120.669 20.2256 120.637 20.1821 120.615 20.1494C120.593 20.1059 120.56 20.0733 120.539 20.0406L119.603 18.8112L119.026 20.9002H119.331ZM123.008 19.1702L123.085 18.8873H121.692L121.616 19.1702H122.149L121.67 20.9002H121.997L122.475 19.1702H123.008ZM122.834 20.4976C122.824 20.639 122.867 20.7587 122.954 20.8349C123.041 20.911 123.172 20.9546 123.346 20.9546C123.552 20.9546 123.727 20.9002 123.879 20.7914C124.031 20.6826 124.129 20.5302 124.184 20.3344C124.216 20.2038 124.216 20.095 124.162 20.008C124.107 19.921 123.999 19.8339 123.824 19.736C123.814 19.736 123.803 19.7251 123.792 19.7142C123.596 19.6054 123.509 19.4966 123.542 19.3769C123.563 19.3008 123.607 19.2355 123.672 19.192C123.737 19.1485 123.814 19.1267 123.901 19.1267C123.966 19.1267 124.009 19.1376 124.053 19.1702C124.096 19.2029 124.129 19.2464 124.151 19.3117L124.445 19.1811C124.434 19.0723 124.39 18.9961 124.303 18.9309C124.216 18.8765 124.107 18.8438 123.955 18.8438C123.77 18.8438 123.618 18.8982 123.476 18.9961C123.335 19.0941 123.248 19.2355 123.204 19.3987C123.172 19.5293 123.172 19.6272 123.226 19.7142C123.28 19.8013 123.4 19.8992 123.585 20.008C123.596 20.0189 123.618 20.0298 123.64 20.0406C123.814 20.1277 123.879 20.2365 123.846 20.3562C123.824 20.4432 123.77 20.5194 123.705 20.5738C123.629 20.6282 123.552 20.6499 123.455 20.6499C123.357 20.6499 123.27 20.6282 123.226 20.5738C123.172 20.5302 123.15 20.4541 123.15 20.367L122.834 20.4976ZM127.328 19.0505C127.241 18.9853 127.154 18.9309 127.056 18.8982C126.958 18.8656 126.849 18.8438 126.729 18.8438C126.577 18.8438 126.436 18.8656 126.294 18.92C126.153 18.9744 126.011 19.0505 125.892 19.1485C125.761 19.2464 125.652 19.3552 125.565 19.4857C125.478 19.6163 125.413 19.7577 125.369 19.8992C125.326 20.0515 125.315 20.1821 125.337 20.3126C125.348 20.4432 125.391 20.552 125.467 20.6499C125.544 20.7478 125.631 20.824 125.75 20.8675C125.87 20.9219 126.001 20.9437 126.153 20.9437C126.273 20.9437 126.392 20.9328 126.501 20.9002C126.61 20.8675 126.719 20.824 126.827 20.7587L126.925 20.3888C126.806 20.4758 126.686 20.5411 126.566 20.5846C126.447 20.6282 126.327 20.6499 126.207 20.6499C126.001 20.6499 125.848 20.5846 125.761 20.4432C125.663 20.3018 125.652 20.1277 125.707 19.9101C125.772 19.6816 125.892 19.5075 126.066 19.3661C126.24 19.2246 126.436 19.1593 126.664 19.1593C126.773 19.1593 126.882 19.1811 126.969 19.2137C127.056 19.2573 127.143 19.3117 127.208 19.3878L127.328 19.0505ZM129.537 19.8992C129.58 19.7577 129.591 19.6272 129.569 19.4966C129.547 19.3661 129.504 19.2573 129.428 19.1485C129.352 19.0505 129.254 18.9744 129.145 18.92C129.025 18.8656 128.906 18.8438 128.753 18.8438C128.612 18.8438 128.459 18.8656 128.318 18.92C128.177 18.9744 128.035 19.0505 127.905 19.1485C127.774 19.2464 127.665 19.3661 127.578 19.4857C127.491 19.6163 127.426 19.7469 127.382 19.8883C127.339 20.0298 127.328 20.1712 127.35 20.2909C127.371 20.4214 127.415 20.5302 127.491 20.6282C127.567 20.7261 127.654 20.8022 127.774 20.8566C127.894 20.911 128.024 20.9328 128.166 20.9328C128.307 20.9328 128.449 20.9002 128.601 20.8566C128.753 20.8131 128.884 20.7261 129.014 20.6282C129.145 20.5302 129.254 20.4106 129.341 20.2909C129.428 20.1821 129.493 20.0515 129.537 19.8992ZM129.199 19.8992C129.167 19.9971 129.123 20.095 129.069 20.1821C129.003 20.2691 128.927 20.3562 128.84 20.4214C128.753 20.4976 128.655 20.552 128.557 20.5846C128.459 20.6173 128.362 20.639 128.264 20.639C128.166 20.639 128.079 20.6173 127.992 20.5846C127.915 20.552 127.85 20.4976 127.796 20.4214C127.741 20.3453 127.72 20.2691 127.709 20.1821C127.698 20.095 127.709 19.9971 127.73 19.8992C127.763 19.8013 127.807 19.7033 127.872 19.6054C127.937 19.5184 128.013 19.4313 128.1 19.3661C128.187 19.2899 128.285 19.2355 128.383 19.2029C128.481 19.1593 128.579 19.1485 128.677 19.1485C128.775 19.1485 128.862 19.1702 128.949 19.2029C129.025 19.2464 129.09 19.2899 129.134 19.3661C129.188 19.4422 129.21 19.5184 129.221 19.6054C129.232 19.7033 129.221 19.8013 129.199 19.8992ZM130.222 20.008L130.635 20.911H131.005L130.57 19.9971C130.723 19.9754 130.853 19.9209 130.962 19.8339C131.06 19.7469 131.136 19.6163 131.179 19.4531C131.201 19.3661 131.212 19.279 131.201 19.2029C131.19 19.1267 131.158 19.0614 131.114 19.0179C131.071 18.9744 131.016 18.9526 130.951 18.9309C130.886 18.9091 130.777 18.9091 130.646 18.9091H130.189L129.634 20.9219H129.939L130.189 20.0189H130.222V20.008ZM130.44 19.1702H130.494C130.657 19.1702 130.766 19.192 130.81 19.2355C130.853 19.279 130.864 19.3552 130.831 19.4749C130.799 19.5728 130.755 19.6489 130.69 19.6925C130.625 19.736 130.505 19.7577 130.331 19.7577H130.276L130.44 19.1702ZM131.952 19.9971H132.017C132.159 19.9971 132.278 19.9862 132.344 19.9753C132.42 19.9645 132.485 19.9318 132.55 19.8992C132.627 19.8557 132.692 19.7904 132.757 19.7142C132.811 19.6381 132.855 19.551 132.888 19.4531C132.92 19.3552 132.92 19.2681 132.909 19.192C132.899 19.1158 132.866 19.0505 132.811 19.007C132.768 18.9744 132.714 18.9417 132.648 18.9309C132.583 18.92 132.474 18.9091 132.333 18.9091H131.821L131.267 20.9219H131.571L131.821 20.0189H131.952V19.9971ZM132.072 19.1702H132.159C132.333 19.1702 132.442 19.192 132.496 19.2355C132.55 19.279 132.561 19.3552 132.529 19.464C132.496 19.5619 132.452 19.6381 132.376 19.6707C132.3 19.7142 132.18 19.7251 131.995 19.7251H131.908L132.072 19.1702ZM135.107 19.8992C135.151 19.7577 135.162 19.6272 135.14 19.4966C135.118 19.3661 135.075 19.2573 134.998 19.1485C134.922 19.0505 134.824 18.9744 134.716 18.92C134.596 18.8656 134.465 18.8438 134.324 18.8438C134.182 18.8438 134.03 18.8656 133.889 18.92C133.747 18.9744 133.606 19.0505 133.475 19.1485C133.345 19.2464 133.236 19.3661 133.149 19.4857C133.062 19.6163 132.996 19.7469 132.953 19.8883C132.909 20.0298 132.899 20.1712 132.92 20.2909C132.942 20.4214 132.986 20.5302 133.062 20.6282C133.138 20.7261 133.225 20.8022 133.345 20.8566C133.464 20.911 133.595 20.9328 133.736 20.9328C133.878 20.9328 134.019 20.9002 134.172 20.8566C134.324 20.8131 134.454 20.7261 134.585 20.6282C134.716 20.5302 134.824 20.4106 134.911 20.2909C134.998 20.1821 135.064 20.0515 135.107 19.8992ZM134.77 19.8992C134.737 19.9971 134.694 20.095 134.639 20.1821C134.574 20.2691 134.498 20.3562 134.411 20.4214C134.324 20.4976 134.226 20.552 134.128 20.5846C134.03 20.6173 133.932 20.639 133.834 20.639C133.736 20.639 133.649 20.6173 133.562 20.5846C133.486 20.552 133.421 20.4976 133.366 20.4214C133.312 20.3453 133.29 20.2691 133.279 20.1821C133.268 20.095 133.279 19.9971 133.301 19.8992C133.334 19.8013 133.377 19.7033 133.443 19.6054C133.508 19.5184 133.584 19.4313 133.671 19.3661C133.758 19.2899 133.856 19.2355 133.954 19.2029C134.052 19.1593 134.15 19.1485 134.248 19.1485C134.346 19.1485 134.433 19.1702 134.52 19.2029C134.596 19.2464 134.661 19.2899 134.705 19.3661C134.759 19.4422 134.781 19.5184 134.792 19.6054C134.803 19.7033 134.792 19.8013 134.77 19.8992ZM135.684 20.008L136.108 20.911H136.478L136.043 19.9971C136.195 19.9754 136.326 19.9209 136.435 19.8339C136.543 19.7469 136.609 19.6163 136.652 19.4531C136.674 19.3661 136.685 19.279 136.674 19.2029C136.663 19.1267 136.63 19.0614 136.587 19.0179C136.543 18.9744 136.489 18.9526 136.424 18.9309C136.358 18.9091 136.25 18.9091 136.119 18.9091H135.662L135.107 20.9219H135.412L135.662 20.0189H135.684V20.008ZM135.901 19.1702H135.956C136.119 19.1702 136.228 19.192 136.271 19.2355C136.315 19.279 136.326 19.3552 136.293 19.4749C136.261 19.5728 136.217 19.6489 136.152 19.6925C136.086 19.736 135.967 19.7577 135.793 19.7577H135.738L135.901 19.1702ZM138.458 20.911L138.067 18.8221L136.511 20.911H136.859L137.24 20.3888H138.034L138.121 20.911H138.458ZM137.762 19.6598C137.784 19.6272 137.805 19.5945 137.827 19.551C137.849 19.5075 137.871 19.4749 137.893 19.4313C137.893 19.4749 137.893 19.5184 137.893 19.5619C137.893 19.6054 137.893 19.6381 137.903 19.6598L137.98 20.1168H137.414L137.762 19.6598ZM139.982 19.1702L140.058 18.8873H138.665L138.589 19.1702H139.122L138.643 20.9002H138.97L139.448 19.1702H139.982ZM140.145 20.9002L140.7 18.8873H140.373L139.818 20.9002H140.145ZM142.843 19.8992C142.887 19.7577 142.897 19.6272 142.876 19.4966C142.854 19.3661 142.81 19.2573 142.734 19.1485C142.658 19.0505 142.56 18.9744 142.451 18.92C142.332 18.8656 142.212 18.8438 142.06 18.8438C141.918 18.8438 141.766 18.8656 141.624 18.92C141.483 18.9744 141.342 19.0505 141.211 19.1485C141.08 19.2464 140.972 19.3661 140.885 19.4857C140.798 19.6163 140.732 19.7469 140.689 19.8883C140.645 20.0298 140.634 20.1712 140.656 20.2909C140.678 20.4214 140.721 20.5302 140.798 20.6282C140.874 20.7261 140.961 20.8022 141.08 20.8566C141.2 20.911 141.331 20.9328 141.472 20.9328C141.614 20.9328 141.755 20.9002 141.907 20.8566C142.06 20.8131 142.19 20.7261 142.321 20.6282C142.451 20.5302 142.56 20.4106 142.647 20.2909C142.734 20.1821 142.799 20.0515 142.843 19.8992ZM142.495 19.8992C142.462 19.9971 142.419 20.095 142.364 20.1821C142.299 20.2691 142.223 20.3562 142.136 20.4214C142.049 20.4976 141.951 20.552 141.853 20.5846C141.755 20.6173 141.657 20.639 141.559 20.639C141.461 20.639 141.374 20.6173 141.287 20.5846C141.211 20.552 141.146 20.4976 141.091 20.4214C141.037 20.3453 141.015 20.2691 141.004 20.1821C140.993 20.095 141.004 19.9971 141.026 19.8992C141.059 19.8013 141.102 19.7033 141.167 19.6054C141.233 19.5184 141.309 19.4313 141.396 19.3661C141.483 19.2899 141.581 19.2355 141.679 19.2029C141.777 19.1593 141.875 19.1485 141.973 19.1485C142.071 19.1485 142.158 19.1702 142.245 19.2029C142.321 19.2464 142.386 19.2899 142.43 19.3661C142.484 19.4422 142.506 19.5184 142.517 19.6054C142.538 19.7033 142.527 19.8013 142.495 19.8992ZM143.126 20.9002L143.518 19.4966C143.539 19.5401 143.55 19.5728 143.572 19.6163C143.594 19.6489 143.615 19.6925 143.648 19.7251L144.606 20.9763L145.182 18.8873H144.878L144.486 20.28C144.464 20.2256 144.432 20.1821 144.41 20.1494C144.388 20.1059 144.355 20.0733 144.334 20.0406L143.398 18.8112L142.821 20.9002H143.126ZM148.055 19.8992C148.098 19.7577 148.109 19.6272 148.087 19.4966C148.065 19.3661 148.022 19.2573 147.946 19.1485C147.87 19.0505 147.772 18.9744 147.663 18.92C147.543 18.8656 147.424 18.8438 147.271 18.8438C147.13 18.8438 146.977 18.8656 146.836 18.92C146.695 18.9744 146.553 19.0505 146.423 19.1485C146.292 19.2464 146.183 19.3661 146.096 19.4857C146.009 19.6163 145.944 19.7469 145.9 19.8883C145.857 20.0298 145.846 20.1712 145.868 20.2909C145.889 20.4214 145.933 20.5302 146.009 20.6282C146.085 20.7261 146.172 20.8022 146.292 20.8566C146.412 20.911 146.542 20.9328 146.684 20.9328C146.825 20.9328 146.967 20.9002 147.119 20.8566C147.271 20.8131 147.402 20.7261 147.532 20.6282C147.663 20.5302 147.772 20.4106 147.859 20.2909C147.946 20.1821 148.011 20.0515 148.055 19.8992ZM147.706 19.8992C147.674 19.9971 147.63 20.095 147.576 20.1821C147.511 20.2691 147.434 20.3562 147.347 20.4214C147.26 20.4976 147.162 20.552 147.065 20.5846C146.967 20.6173 146.869 20.639 146.771 20.639C146.673 20.639 146.586 20.6173 146.499 20.5846C146.423 20.552 146.357 20.4976 146.303 20.4214C146.248 20.3453 146.227 20.2691 146.216 20.1821C146.205 20.095 146.216 19.9971 146.238 19.8992C146.27 19.8013 146.314 19.7033 146.379 19.6054C146.444 19.5184 146.52 19.4313 146.608 19.3661C146.695 19.2899 146.793 19.2355 146.89 19.2029C146.988 19.1593 147.086 19.1485 147.184 19.1485C147.282 19.1485 147.369 19.1702 147.456 19.2029C147.532 19.2464 147.598 19.2899 147.641 19.3661C147.696 19.4422 147.717 19.5184 147.728 19.6054C147.75 19.7033 147.739 19.8013 147.706 19.8992ZM148.359 20.9002L148.62 19.9536H149.415L149.491 19.6707H148.697L148.838 19.1702H149.632L149.708 18.8982H148.588L148.033 20.911H148.359V20.9002ZM150.698 20.9002L151.253 18.8873H150.927L150.372 20.9002H150.698ZM151.297 20.9002L151.689 19.4966C151.71 19.5401 151.721 19.5728 151.743 19.6163C151.765 19.6489 151.786 19.6925 151.819 19.7251L152.777 20.9763L153.353 18.8873H153.049L152.657 20.28C152.635 20.2256 152.603 20.1821 152.581 20.1494C152.559 20.1059 152.526 20.0733 152.505 20.0406L151.569 18.8112L150.992 20.9002H151.297ZM153.582 20.9002H153.669C153.908 20.9002 154.082 20.8893 154.202 20.8566C154.322 20.824 154.441 20.7805 154.539 20.7152C154.681 20.6282 154.8 20.5085 154.898 20.3779C154.996 20.2365 155.072 20.0842 155.116 19.8992C155.17 19.7251 155.181 19.5619 155.159 19.4205C155.138 19.279 155.083 19.1702 154.985 19.0832C154.92 19.0179 154.822 18.9635 154.713 18.9417C154.604 18.9091 154.409 18.8982 154.115 18.8982H153.669L153.114 20.911H153.582V20.9002ZM153.952 19.1811H154.071H154.191C154.365 19.1811 154.485 19.192 154.55 19.2137C154.626 19.2355 154.681 19.2681 154.724 19.3117C154.779 19.3769 154.822 19.4531 154.833 19.551C154.844 19.6489 154.833 19.7577 154.8 19.8883C154.768 20.0189 154.713 20.1277 154.648 20.2256C154.583 20.3235 154.507 20.3997 154.409 20.465C154.343 20.5085 154.267 20.552 154.18 20.5629C154.104 20.5846 153.984 20.5955 153.832 20.5955H153.56L153.952 19.1811ZM155.388 20.9002L155.943 18.8873H155.616L155.061 20.9002H155.388ZM157.531 20.911L157.14 18.8221L155.584 20.911H155.932L156.313 20.3888H157.107L157.194 20.911H157.531ZM156.835 19.6598C156.857 19.6272 156.878 19.5945 156.9 19.551C156.922 19.5075 156.944 19.4749 156.965 19.4313C156.965 19.4749 156.965 19.5184 156.965 19.5619C156.965 19.6054 156.965 19.6381 156.976 19.6598L157.052 20.1168H156.487L156.835 19.6598Z" fill="#333333"/>
<g clip-path="url(#clip0)">
<path d="M209.299 7.23157C209.267 9.65953 211.544 11.0145 213.259 11.8201C215.021 12.6467 215.613 13.1767 215.606 13.9158C215.593 15.0471 214.201 15.5463 212.897 15.5657C210.624 15.5998 209.302 14.9741 208.251 14.5009L207.432 18.1947C208.487 18.6631 210.439 19.0715 212.464 19.0894C217.216 19.0894 220.325 16.8283 220.342 13.3225C220.36 8.87344 213.957 8.62708 214 6.63836C214.016 6.03542 214.613 5.39196 215.921 5.22826C216.568 5.1456 218.356 5.08239 220.382 5.98194L221.177 2.40807C220.088 2.02556 218.687 1.65926 216.943 1.65926C212.47 1.65926 209.324 3.95107 209.299 7.23157ZM228.82 1.96721C227.953 1.96721 227.221 2.45507 226.895 3.20388L220.106 18.8268H224.855L225.8 16.3097H231.603L232.151 18.8268H236.337L232.685 1.96721H228.82ZM229.484 6.52166L230.855 12.8525H227.102L229.484 6.52166ZM203.541 1.96721L199.798 18.8268H204.323L208.065 1.96721H203.541ZM196.847 1.96721L192.137 13.4425L190.231 3.68526C190.008 2.59608 189.125 1.96721 188.144 1.96721H180.445L180.337 2.45669C181.918 2.78734 183.714 3.32058 184.802 3.8911C185.467 4.23957 185.657 4.54428 185.876 5.37251L189.485 18.8268H194.267L201.599 1.96721H196.847Z" fill="#0056A3"/>
<path d="M192.137 13.4229L190.231 3.66563C190.008 2.57645 189.125 1.94758 188.144 1.94758H180.445L180.337 2.43706C181.918 2.76771 183.714 3.30095 184.802 3.87147C185.467 4.21994 190.231 6.61898 191.776 11.5773L192.137 13.4229Z" fill="#FFA700"/>
</g>
<path d="M83.0122 0H0.987305V20.5026H83.0122V0Z" fill="#0C297C"/>
<path d="M83.0122 18.4482H0.987305V20.5028H83.0122V18.4482Z" fill="#FF9901"/>
<path d="M10.8548 4.65998L10.7101 6.16476H8.06227L7.8163 8.23383H10.4641L10.2905 9.75308H7.6282L7.12179 13.8333H5.60254L6.67325 4.64551L10.8548 4.65998Z" fill="white"/>
<path d="M11.6209 4.65998L10.5791 13.8044C10.5791 13.8044 15.079 13.8912 15.079 13.7899C15.079 13.6886 15.2381 12.343 15.2381 12.343H12.2286L12.5324 9.72414H15.5564L15.7445 8.20489H12.7495L12.9954 6.13582H16.005L16.1786 4.64551L11.6209 4.65998Z" fill="white"/>
<path d="M23.95 4.65998L22.9082 13.8044C22.9082 13.8044 27.4081 13.8912 27.4081 13.7899C27.4081 13.6886 27.5672 12.343 27.5672 12.343H24.5577L24.8615 9.72414H27.8855L28.0736 8.20489H25.0786L25.3245 6.13582H28.3341L28.5077 4.64551L23.95 4.65998Z" fill="white"/>
<path d="M19.1319 4.68927L17.0918 4.6748L16.0645 13.8048H17.5548C17.8731 13.8337 19.6672 13.9784 20.7958 13.3273C20.7958 13.3273 23.0964 12.3868 23.0819 8.59591C23.053 8.58144 22.9228 5.10888 19.1319 4.68927ZM19.4936 12.3434C19.4936 12.3434 18.0756 12.4302 17.6995 12.3868L18.4084 6.16511L19.5226 6.15064C19.5226 6.15064 21.1141 6.15064 21.5771 8.20524C21.5771 8.21971 21.5772 8.23418 21.5916 8.24865C22.0402 10.3177 20.709 12.1698 19.4936 12.3434Z" fill="white"/>
<path d="M34.0482 13.8334L32.1238 9.89781C32.1238 9.89781 33.8022 9.59396 33.9614 7.20657C33.9614 7.20657 33.9903 4.81919 31.6463 4.68896H29.447L28.4053 13.8334H29.939L30.3586 10.057L30.5612 10.0714L32.4711 13.8334H34.0482ZM30.8071 6.15033C30.8071 6.15033 32.2974 5.87542 32.4855 6.78697C32.4855 6.78697 32.8328 8.47985 31.2846 8.69688L30.5178 8.68241L30.8071 6.15033Z" fill="white"/>
<path d="M40.4289 13.8336H42.006L39.3437 4.63135L34.2217 13.8192H35.958L36.9708 11.8803H39.9225L40.4289 13.8336ZM37.7666 10.4045L38.982 8.07498L39.5752 10.419L37.7666 10.4045Z" fill="white"/>
<path d="M60.9465 13.8336H62.5236L59.8613 4.63135L54.7393 13.8192H56.4755L57.4884 11.8803H60.4401L60.9465 13.8336ZM58.2697 10.4045L59.4851 8.07498L60.0783 10.419L58.2697 10.4045Z" fill="white"/>
<path d="M43.3959 4.73176L42.3252 13.8328H46.4489L46.608 12.4003H44.047L44.8573 4.71729L43.3959 4.73176Z" fill="white"/>
<path d="M53.9294 9.05861C53.9294 9.05861 55.1593 8.01684 54.8409 6.62781C54.8409 6.62781 54.6963 4.86259 52.6127 4.68896H50.6015L49.5742 13.8189H50.9198H51.1369C51.1369 13.8189 51.3828 13.8189 51.9037 13.8189C51.9037 13.8189 53.9294 13.8334 54.6094 12.6903C54.6094 12.6903 55.9406 10.6791 53.9294 9.05861ZM52.0774 6.00564C52.0774 6.00564 53.0034 5.9333 53.3362 6.48312C53.3362 6.48312 53.9873 7.7564 52.5982 8.3641L51.788 8.4075L52.0629 6.15033L52.0774 6.00564ZM53.2638 12.0103C53.2638 12.0103 52.8732 12.589 51.3539 12.3865H51.3105L51.6288 9.75312C51.8893 9.73865 52.4825 9.69525 52.6851 9.82547C52.6706 9.83994 54.1609 10.2017 53.2638 12.0103Z" fill="white"/>
<path d="M64.419 4.61621L63.0879 13.833H64.5637L65.3451 7.88621L70.3224 13.7896L71.5812 4.65962H70.0041L69.353 10.1434L64.419 4.61621Z" fill="white"/>
<path d="M78.3955 4.64582H76.6592L73.722 7.85794L74.0837 4.64582L72.5211 4.63135L71.4648 13.8336H73.042L73.4616 10.1875L73.7075 9.91254L76.4277 13.8047H78.2219L74.8361 8.63927L78.3955 4.64582Z" fill="white"/>
<defs>
<clipPath id="clip0">
<rect width="56" height="17.5" fill="white" transform="translate(180.004 2)"/>
</clipPath>
</defs>
</svg>
